<svg xmlns="http://www.w3.org/2000/svg" xmlns:xlink="http://www.w3.org/1999/xlink" viewBox="0 0 1080 1080"><defs><style>.cls-1{isolation:isolate;}.cls-2{fill:url(#linear-gradient);}.cls-3,.cls-4{mix-blend-mode:multiply;}.cls-3{fill:url(#linear-gradient-2);}.cls-4{fill:url(#linear-gradient-3);}</style><linearGradient id="linear-gradient" x1="349.17" y1="331.15" x2="785.07" y2="767.04" gradientUnits="userSpaceOnUse"><stop offset="0" stop-color="#2affd8"/><stop offset="1" stop-color="#001194"/></linearGradient><linearGradient id="linear-gradient-2" x1="813.85" y1="214.74" x2="392.99" y2="466.2" gradientUnits="userSpaceOnUse"><stop offset="0" stop-color="#fff"/><stop offset="1" stop-color="#234fbb"/></linearGradient><linearGradient id="linear-gradient-3" x1="469.3" y1="744.47" x2="259.3" y2="642.78" xlink:href="#linear-gradient-2"/></defs><g class="cls-1"><g id="Layer_1" data-name="Layer 1"><path class="cls-2" d="M917,545.15c-112.46,256.69,29.92,468.69-136,487.34C680.72,1043.75,641.88,751.61,638,738.69c-12.87-42.22-10-84-.24-121.12,13.75-52.3-50-89.46-88.56-51.51a389.68,389.68,0,0,0-41.73,48.78c-36.93,50.88-60.35,110.24-70.92,172.22-14.51,85.12-53.78,254.63-135.4,245.43-165.89-18.65-23.45-230.65-136-487.34-67.69-154.5-106.2-317.86,1.79-432.32,22.66-24,47.11-40.31,72.36-50.63,109.13-44.84,177.81,119.32,70.48,168.22-11.31,5.15-22.52,9.79-33.29,13.94-15.62,6-10.2,29.39,6.46,27.84C425.68,259,511.45,188.43,552.67,143.08c36-39.64,81.61-69.83,133.11-84.42,72.69-20.51,159.7-19.78,229.45,54.17C1023.3,227.29,984.72,390.65,917,545.15Z"/><path class="cls-3" d="M685.78,58.66c-51.5,14.59-97.07,44.78-133.11,84.42C515.6,183.86,442.49,245,324.33,266.49c-29,5.27-31.93,45.64-4.15,55.34,151.38,52.88,416.29,118,656.27,38.94,15.76-92,4-178.87-61.22-247.94C845.48,38.88,758.47,38.15,685.78,58.66Z"/><path class="cls-4" d="M219.06,817.16c-1.87,5.28-3.63,10.44-5.33,15.55-1.29,112.55-9.18,188.93,87.37,199.78,81.62,9.2,120.89-160.31,135.4-245.43,10.57-62,34-121.34,70.92-172.22,41.64-57.39,106.25-116.32,201.28-132.59C708.7,482.25,356.11,430.31,219.06,817.16Z"/></g></g></svg>