<svg xmlns="http://www.w3.org/2000/svg" viewBox="0 0 5806.95 1013.11"><defs><style>.cls-1{isolation:isolate;}.cls-2{font-size:818.96px;font-family:Philosopher-Regular, Philosopher;}.cls-2,.cls-3,.cls-4{fill:#fff;}.cls-4{mix-blend-mode:multiply;}</style></defs><g class="cls-1"><g id="Layer_1" data-name="Layer 1"><text class="cls-2" transform="translate(1590.8 746.95) scale(1.08 1)">JDC Dental </text><path class="cls-3" d="M860.93,511.85c-115.59,263.83,30.74,481.72-139.76,500.89-103.12,11.58-143-288.69-147.09-302-13.22-43.39-10.28-86.29-.24-124.49,14.13-53.75-51.43-91.94-91-52.94a399.9,399.9,0,0,0-42.9,50.13c-37.95,52.31-62,113.32-72.89,177C352.12,848,311.75,1022.2,227.87,1012.74c-170.5-19.17-24.1-237.06-139.76-500.89C18.54,353.05-21,185.15,90,67.51c23.28-24.72,48.42-41.43,74.37-52,112.16-46.09,182.76,122.64,72.44,172.9-11.63,5.29-23.14,10.06-34.22,14.32-16.05,6.19-10.48,30.21,6.64,28.63C355.92,217.7,444.07,145.21,486.44,98.6c37-40.75,83.88-71.77,136.81-86.76C698-9.25,787.39-8.5,859.08,67.51,970.15,185.15,930.5,353.05,860.93,511.85Z"/><path class="cls-4" d="M623.25,11.84c-52.93,15-99.77,46-136.81,86.76-38.1,41.92-113.25,104.71-234.7,126.84-29.76,5.42-32.82,46.91-4.26,56.89,155.58,54.34,427.86,121.23,674.52,40,16.19-94.55,4.1-183.85-62.92-254.84C787.39-8.5,698-9.25,623.25,11.84Z"/><path class="cls-4" d="M143.54,791.42c-1.92,5.43-3.72,10.74-5.48,16-1.31,115.68-9.43,194.17,89.81,205.33C311.75,1022.2,352.12,848,367,760.49c10.86-63.7,34.94-124.71,72.89-177,42.81-59,109.21-119.55,206.89-136.26C646.81,447.21,284.41,393.82,143.54,791.42Z"/></g></g></svg>