<svg xmlns="http://www.w3.org/2000/svg" xmlns:xlink="http://www.w3.org/1999/xlink" viewBox="0 0 5806.95 1013.11"><defs><style>.cls-1{isolation:isolate;}.cls-2{font-size:818.96px;fill:#2a2b2b;font-family:Philosopher-Regular, Philosopher;}.cls-3{fill:url(#linear-gradient);}.cls-4,.cls-5{mix-blend-mode:multiply;}.cls-4{fill:url(#linear-gradient-2);}.cls-5{fill:url(#linear-gradient-3);}</style><linearGradient id="linear-gradient" x1="256.68" y1="291.9" x2="704.69" y2="739.91" gradientUnits="userSpaceOnUse"><stop offset="0" stop-color="#2affd8"/><stop offset="1" stop-color="#001194"/></linearGradient><linearGradient id="linear-gradient-2" x1="734.27" y1="172.26" x2="301.71" y2="430.71" gradientUnits="userSpaceOnUse"><stop offset="0" stop-color="#fff"/><stop offset="1" stop-color="#234fbb"/></linearGradient><linearGradient id="linear-gradient-3" x1="380.15" y1="716.71" x2="164.31" y2="612.2" xlink:href="#linear-gradient-2"/></defs><g class="cls-1"><g id="Layer_1" data-name="Layer 1"><text class="cls-2" transform="translate(1570.19 746.95) scale(1.08 1)">JDC Dental </text><path class="cls-3" d="M840.33,511.85c-115.59,263.83,30.74,481.72-139.76,500.89-103.13,11.58-143.05-288.69-147.09-302-13.23-43.39-10.28-86.29-.24-124.49,14.13-53.75-51.43-91.94-91-52.94a399.9,399.9,0,0,0-42.9,50.13c-37.95,52.31-62,113.32-72.89,177C331.52,848,291.15,1022.2,207.27,1012.74c-170.5-19.17-24.1-237.06-139.76-500.89C-2.06,353.05-41.64,185.15,69.36,67.51c23.28-24.72,48.41-41.43,74.37-52,112.16-46.09,182.76,122.64,72.44,172.9C204.54,193.66,193,198.43,182,202.69c-16,6.19-10.48,30.21,6.64,28.63C335.31,217.7,423.46,145.21,465.83,98.6c37.05-40.75,83.89-71.77,136.82-86.76C677.35-9.25,766.78-8.5,838.48,67.51,949.55,185.15,909.9,353.05,840.33,511.85Z"/><path class="cls-4" d="M602.65,11.84c-52.93,15-99.77,46-136.82,86.76-38.1,41.92-113.24,104.71-234.69,126.84-29.76,5.42-32.82,46.91-4.26,56.89,155.58,54.34,427.86,121.23,674.52,40,16.19-94.55,4.1-183.85-62.92-254.84C766.78-8.5,677.35-9.25,602.65,11.84Z"/><path class="cls-5" d="M122.94,791.42c-1.92,5.43-3.72,10.74-5.48,16-1.31,115.68-9.43,194.17,89.81,205.33C291.15,1022.2,331.52,848,346.43,760.49c10.86-63.7,34.94-124.71,72.89-177,42.8-59,109.21-119.55,206.88-136.26C626.2,447.21,263.81,393.82,122.94,791.42Z"/></g></g></svg>