<svg xmlns="http://www.w3.org/2000/svg" xmlns:xlink="http://www.w3.org/1999/xlink" viewBox="0 0 2576.68 1080"><defs><style>.cls-1{isolation:isolate;}.cls-2{font-size:818.96px;fill:#2a2b2b;font-family:Philosopher-Regular, Philosopher;}.cls-3{fill:url(#linear-gradient);}.cls-4,.cls-5{mix-blend-mode:multiply;}.cls-4{fill:url(#linear-gradient-2);}.cls-5{fill:url(#linear-gradient-3);}</style><linearGradient id="linear-gradient" x1="286.98" y1="322.93" x2="735" y2="770.95" gradientUnits="userSpaceOnUse"><stop offset="0" stop-color="#2affd8"/><stop offset="1" stop-color="#001194"/></linearGradient><linearGradient id="linear-gradient-2" x1="764.58" y1="203.29" x2="332.02" y2="461.74" gradientUnits="userSpaceOnUse"><stop offset="0" stop-color="#fff"/><stop offset="1" stop-color="#234fbb"/></linearGradient><linearGradient id="linear-gradient-3" x1="410.46" y1="747.74" x2="194.62" y2="643.23" xlink:href="#linear-gradient-2"/></defs><g class="cls-1"><g id="Layer_1" data-name="Layer 1"><text class="cls-2" transform="translate(1073.52 777.98) scale(1.08 1)">JDC</text><path class="cls-3" d="M870.63,542.88c-115.58,263.84,30.75,481.73-139.75,500.9-103.13,11.57-143-288.69-147.09-302-13.23-43.38-10.28-86.29-.24-124.48,14.13-53.75-51.43-92-91-53a400.68,400.68,0,0,0-42.9,50.14c-38,52.3-62,113.31-72.89,177-14.92,87.48-55.28,261.71-139.16,252.25-170.51-19.17-24.11-237.06-139.76-500.9C28.25,384.09-11.33,216.18,99.67,98.54,123,73.82,148.08,57.11,174,46.5,286.2.42,356.79,169.14,246.48,219.4c-11.63,5.29-23.15,10.06-34.22,14.33-16,6.18-10.49,30.21,6.64,28.62,146.72-13.62,234.87-86.1,277.24-132.72C533.19,88.89,580,57.87,633,42.87c74.7-21.09,164.13-20.34,235.83,55.67C979.85,216.18,940.21,384.09,870.63,542.88Z"/><path class="cls-4" d="M633,42.87c-52.94,15-99.77,46-136.82,86.76C458,171.55,382.9,234.35,261.45,256.47c-29.76,5.42-32.82,46.91-4.26,56.89,155.58,54.34,427.86,121.23,674.51,40,16.2-94.55,4.11-183.85-62.91-254.84C797.09,22.53,707.66,21.78,633,42.87Z"/><path class="cls-5" d="M153.25,822.46c-1.92,5.43-3.73,10.73-5.48,16-1.32,115.68-9.43,194.18,89.81,205.34,83.88,9.46,124.24-164.77,139.16-252.25,10.86-63.71,34.93-124.72,72.89-177,42.8-59,109.21-119.55,206.88-136.27C656.51,478.24,294.11,424.86,153.25,822.46Z"/></g></g></svg>